# xmcd
#
# Track frame offsets:
#	150
#	17100
#	33750
#	50625
#	69300
#	88050
#	105675
#	117375
#	132825
#	149925
#	167400
#	180600
#	194775
#	209925
#	227025
#	241200
#	255300
#	269775
#
# Disc length: 3785 seconds
#
# Revision: 0
# Processed by: cddbd v1.5.1PL0 Copyright (c) Steve Scherf et al.
# Submitted via: audiograbber 1.83.01
#
DISCID=150ec712
DTITLE=V - CSZ209
DYEAR=1900
DGENRE=
TTITLE0=George Strait - Go On
TTITLE1=Tim McGraw - My Next Thirty Years
TTITLE2=Brad Paisley - We Danced
TTITLE3=Travis Tritt - Best Of Intentions
TTITLE4=Vince Gill - Feels Like Love
TTITLE5=Phil Vassar - Just Another Day In Paradise
TTITLE6=Alan Jackson - www(.)Memory
TTITLE7=Lonestar - Tell Her
TTITLE8=Keith Urban - But For The Grace Of God
TTITLE9=Kenny Chesney - I Lost It
TTITLE10=Clark Family Experience - Meanwhile Back At The Ranch
TTITLE11=Garth Brooks and Steve Wariner - Katie Wants A Fast One
TTITLE12=Chad Brok - Visit, The
TTITLE13=Billy Ray Cyrus - You Won't Be Lonely Now
TTITLE14=Darryl Worley - Good Day To Run, A
TTITLE15=Rascal Flatts - This Everyday Love
TTITLE16=Clay Davidson - I Can't Lie To Me
TTITLE17=Chris Cagle - My Love Goes On and On
EXTD=
EXTT0=
EXTT1=
EXTT2=
EXTT3=
EXTT4=
EXTT5=
EXTT6=
EXTT7=
EXTT8=
EXTT9=
EXTT10=
EXTT11=
EXTT12=
EXTT13=
EXTT14=
EXTT15=
EXTT16=
EXTT17=
PLAYORDER=
